<?xml version="1.0" encoding="utf-8"?>
<!-- Generator: Adobe Illustrator 22.0.1, SVG Export Plug-In . SVG Version: 6.00 Build 0)  -->
<svg version="1.1" id="Layer_1" xmlns="http://www.w3.org/2000/svg" xmlns:xlink="http://www.w3.org/1999/xlink" x="0px" y="0px"
	 viewBox="0 0 2000 2000" style="enable-background:new 0 0 2000 2000;" xml:space="preserve">
<style type="text/css">
	.st0{fill:none;}
	.st1{fill:#5FEAFF;stroke:#00FFFF;stroke-miterlimit:10;}
	.st2{font-family:'MyriadPro-Regular';}
	.st3{font-size:36px;}
	.st4{fill:#F7931E;}
</style>
<rect x="714.6" y="921.5" class="st0" width="408.5" height="99.2"/>
<text transform="matrix(1 0 0 1 714.6265 947.0898)" class="st1 st2 st3">Arithmetic Sequence</text>
<rect x="1229.2" y="921.5" class="st0" width="408.5" height="99.2"/>
<text transform="matrix(1 0 0 1 1229.2469 947.0898)" class="st1 st2 st3">Geometric Sequence</text>
<g>
	<g>
		<path class="st4" d="M796.7,1015.6c-1.8-2.7-5.4-3.5-8.3-1.9c-3.2,1.8-5.3,6.4-5.1,10c0.2,3.5,3.2,5.6,6.5,4.4
			c4.4-1.5,5-6.7,8.8-8.7c-0.8-0.4-1.5-0.9-2.3-1.3c0.3,3.1,1.1,5.9,2.4,8.7c0.8,1.8,3.4,0.2,2.6-1.5c-1.1-2.3-1.7-4.6-1.9-7.2
			c-0.1-1.1-1.2-1.9-2.3-1.3c-3.4,1.8-4.1,5.8-7.1,7.8c-2.3,1.5-4.1-0.1-3.5-2.7c0.2-1,0.6-2.1,1.1-3c1.2-2.1,4.6-4.9,6.6-1.9
			C795.2,1018.7,797.8,1017.2,796.7,1015.6L796.7,1015.6z"/>
	</g>
</g>
<g>
	<g>
		<path class="st4" d="M809.2,1028.8c-0.9,4.7-0.9,9.4,0.2,14.1c0.4,1.9,3.2,1.1,2.9-0.8c-0.8-4.4,1.3-8.6,5.2-10.7
			c-0.7-0.3-1.5-0.6-2.2-0.9c1.5,5,3,10,4.4,15c0.5,1.8,3.4,1.1,2.9-0.8c-1.5-5-3-10-4.4-15c-0.3-1-1.3-1.4-2.2-0.9
			c-5.1,2.8-7.7,8.4-6.6,14.1c1-0.3,1.9-0.5,2.9-0.8c-1-4.2-1.1-8.3-0.2-12.5C812.5,1027.7,809.6,1026.9,809.2,1028.8L809.2,1028.8z
			"/>
	</g>
</g>
<g>
	<g>
		<path class="st4" d="M836.7,1028.8c-1.1,5-1.4,10.1-1,15.2c0.1,1.9,3.1,1.9,3,0c-0.3-4.9-0.1-9.6,0.9-14.4
			C839.9,1027.7,837,1026.9,836.7,1028.8L836.7,1028.8z"/>
	</g>
</g>
<g>
	<g>
		<path class="st4" d="M832.6,1037.5c5,1,10,1.3,15.1,0.9c1.9-0.2,1.9-3.2,0-3c-4.8,0.5-9.6,0.2-14.3-0.7
			C831.5,1034.2,830.7,1037.1,832.6,1037.5L832.6,1037.5z"/>
	</g>
</g>
<g>
	<g>
		<path class="st4" d="M855.5,1028.2c0.8,8.1,1.5,16.2,2.3,24.3c0.2,1.9,3.2,1.9,3,0c-0.8-8.1-1.5-16.2-2.3-24.3
			C858.3,1026.3,855.3,1026.2,855.5,1028.2L855.5,1028.2z"/>
	</g>
</g>
<g>
	<g>
		<path class="st4" d="M871.9,1018c4.9,0,9.9,0,14.8,0c1.9,0,1.9-3,0-3c-4.9,0-9.9,0-14.8,0C870,1015,870,1018,871.9,1018
			L871.9,1018z"/>
	</g>
</g>
<g>
	<g>
		<path class="st4" d="M875.1,1027.5c5.3,0,10.6,0,15.8,0c1.9,0,1.9-3,0-3c-5.3,0-10.6,0-15.8,0
			C873.2,1024.5,873.1,1027.5,875.1,1027.5L875.1,1027.5z"/>
	</g>
</g>
<g>
	<g>
		<path class="st4" d="M928.6,1013.1c-3.6-1.6-7.4-1.7-11,0.1c-2.7,1.3-7.1,5.1-5.2,8.5c1.7,3,6.7,3.5,9.8,3c4.3-0.7,8-3.3,10-7.1
			c-0.9-0.3-1.9-0.5-2.8-0.8c0,4.1,0.7,7.9,1.9,11.8c0.6,1.8,3.5,1,2.9-0.8c-1.2-3.6-1.8-7.2-1.8-11c0-1.4-2.1-2.1-2.8-0.8
			c-2,3.8-8.3,7.9-12.7,5.3c-3.3-2-0.1-4.5,2.2-5.6c2.5-1.2,5.4-1.2,7.9-0.1C928.9,1016.5,930.4,1013.9,928.6,1013.1L928.6,1013.1z"
			/>
	</g>
</g>
<g>
	<g>
		<path class="st4" d="M941.1,1033.4c0.4,4.8,0.1,9.4-1,14c1,0.1,2,0.3,2.9,0.4c-0.2-2.4-0.1-4.7,0.4-7c0.4-1.7,1.9-7.4,4.2-4.5
			c1.1,1.4,1.5,4.7,2,6.4c0.7,2.3,1.4,4.6,2.1,6.9c0.6,1.8,3.5,1.1,2.9-0.8c-1.3-4.2-2.4-8.5-3.9-12.7c-0.7-2.1-2-4.5-4.6-4.3
			c-6,0.5-6.5,11.8-6.2,16c0.1,1.6,2.5,2.1,2.9,0.4c1.1-4.9,1.5-9.8,1.1-14.8C943.9,1031.5,940.9,1031.5,941.1,1033.4L941.1,1033.4z
			"/>
	</g>
</g>
<g>
	<g>
		<path class="st4" d="M969.4,1006c0.4,5.6,0.8,11.3,1.2,16.9c0.1,1.9,3.1,1.9,3,0c-0.4-5.6-0.8-11.3-1.2-16.9
			C972.3,1004.1,969.3,1004.1,969.4,1006L969.4,1006z"/>
	</g>
</g>
<g>
	<g>
		<path class="st4" d="M962,1017.9c7.8-1.9,15.6-2.2,23.5-0.8c1.9,0.3,2.7-2.6,0.8-2.9c-8.4-1.5-16.7-1.2-25.1,0.8
			C959.4,1015.5,960.2,1018.4,962,1017.9L962,1017.9z"/>
	</g>
</g>
<g>
	<g>
		<path class="st4" d="M1018,994.4c0.5,10.1,0.9,20.2,1.4,30.3c1,0,2,0,3,0c-0.6-4.6-1.6-10.4-6.5-12.3c-4.1-1.6-8.9,1-10.4,5
			c-1.6,4.5,1.4,9.6,5.7,11.2c5,1.8,10.1-1,12.8-5.2c1-1.6-1.6-3.1-2.6-1.5c-1.6,2.5-4.1,4.5-7.2,4.3c-4-0.2-7.7-4.8-5.4-8.7
			c2.2-3.7,6.9-3.1,8.9,0.4c1.1,2,1.5,4.5,1.7,6.7c0.2,1.9,3.1,2,3,0c-0.5-10.1-0.9-20.2-1.4-30.3
			C1020.9,992.5,1017.9,992.4,1018,994.4L1018,994.4z"/>
	</g>
</g>
<g>
	<g>
		<path class="st4" d="M1286.4,1015c2.4-3,0.3-6.9-3.5-7.1c-4.5-0.2-10.7,4-11.6,8.6c-0.8,4.4,2.7,8,6.9,8.6
			c5.3,0.8,9.4-3.3,11.9-7.5c-0.9-0.1-1.8-0.2-2.7-0.4c1,3.3,2.6,6.2,4.9,8.7c1.3,1.4,3.4-0.7,2.1-2.1c-2-2.2-3.3-4.6-4.1-7.4
			c-0.4-1.2-2.1-1.5-2.7-0.4c-2.1,3.6-6.5,8.1-11,5.3c-3-1.9-2.7-5-0.4-7.3c0.8-0.7,1.7-1.3,2.6-1.9c1.7-1.2,3.6-1,5.6,0.6
			C1283,1014.4,1285.2,1016.5,1286.4,1015L1286.4,1015z"/>
	</g>
</g>
<g>
	<g>
		<path class="st4" d="M1298.2,1028.8c-1,5.9-1.4,11.9-1.3,17.9c1,0,2,0,3,0c-0.5-6.3,0.8-12.2,3.8-17.8c-0.9-0.1-1.8-0.2-2.7-0.4
			c1.5,6,3,11.9,4.5,17.9c0.5,1.9,3.4,1.1,2.9-0.8c-1.5-6-3-11.9-4.5-17.9c-0.3-1.2-2.1-1.5-2.7-0.4c-3.3,6-4.8,12.5-4.3,19.3
			c0.1,1.9,3,2,3,0c-0.1-5.7,0.3-11.4,1.2-17.1C1301.4,1027.7,1298.5,1026.9,1298.2,1028.8L1298.2,1028.8z"/>
	</g>
</g>
<g>
	<g>
		<path class="st4" d="M1316.9,1027.1c0,5.6,0,11.3,0,16.9c0,1.9,3,1.9,3,0c0-5.6,0-11.3,0-16.9
			C1319.9,1025.2,1316.9,1025.2,1316.9,1027.1L1316.9,1027.1z"/>
	</g>
</g>
<g>
	<g>
		<path class="st4" d="M1314.6,1040c4.6-0.7,9.1-1.5,13.7-2.2c1.9-0.3,1.1-3.2-0.8-2.9c-4.6,0.7-9.1,1.5-13.7,2.2
			C1311.9,1037.4,1312.7,1040.3,1314.6,1040L1314.6,1040z"/>
	</g>
</g>
<g>
	<g>
		<path class="st4" d="M1337,1029.2c0,8,0.9,15.9,2.9,23.7c0.5,1.9,3.4,1.1,2.9-0.8c-1.9-7.5-2.8-15.1-2.8-22.9
			C1340.1,1027.3,1337.1,1027.3,1337,1029.2L1337,1029.2z"/>
	</g>
</g>
<g>
	<g>
		<path class="st4" d="M1359.6,1012.6c5.3,0.3,10.6,0.7,15.8,1c1.9,0.1,1.9-2.9,0-3c-5.3-0.3-10.6-0.7-15.8-1
			C1357.7,1009.5,1357.7,1012.5,1359.6,1012.6L1359.6,1012.6z"/>
	</g>
</g>
<g>
	<g>
		<path class="st4" d="M1360.7,1023.3c4.6,0,9.1,0,13.7,0c1.9,0,1.9-3,0-3c-4.6,0-9.1,0-13.7,0
			C1358.7,1020.3,1358.7,1023.3,1360.7,1023.3L1360.7,1023.3z"/>
	</g>
</g>
<g>
	<g>
		<path class="st4" d="M1423.2,1013.2c-3.3-2.7-7.5-3.7-11.6-2.5c-4,1.1-8.3,4.8-8,9.3c0.3,3.9,4.5,6.2,8.1,6c5-0.3,8.3-5,10.8-8.8
			c-0.9,0-1.7,0-2.6,0c1.4,2.3,2,4.7,1.6,7.4c-0.3,1.9,2.6,2.7,2.9,0.8c0.5-3.5,0-6.6-1.9-9.7c-0.6-1-2-0.9-2.6,0
			c-1.5,2.3-3.1,4.8-5.5,6.3c-3.1,1.9-8.6,1-7.4-3.6c1.5-5.9,10.2-6.3,14.1-3C1422.5,1016.6,1424.7,1014.5,1423.2,1013.2
			L1423.2,1013.2z"/>
	</g>
</g>
<g>
	<g>
		<path class="st4" d="M1429.4,1031.8c-1.1,4.7-1.9,9.4-2.3,14.2c-0.1,1.4,2.2,2.1,2.8,0.8c1-2.2,4.9-10.6,7.6-9.8
			c1.4,0.4,1.9,4.6,2.3,6c0.7,2.3,1.4,4.7,2,7c0.5,1.8,3.4,1.1,2.9-0.8c-1.1-3.8-2.2-7.7-3.3-11.5c-0.5-1.8-1.1-4.1-3.3-4.5
			c-2.3-0.4-4.1,2-5.5,3.5c-2.3,2.6-4,5.4-5.4,8.6c0.9,0.3,1.9,0.5,2.8,0.8c0.4-4.5,1.2-9,2.2-13.4
			C1432.7,1030.7,1429.8,1029.9,1429.4,1031.8L1429.4,1031.8z"/>
	</g>
</g>
<g>
	<g>
		<path class="st4" d="M1456.1,1006.6c5.8,5.1,12.6,8.5,20.2,9.9c1.9,0.4,2.7-2.5,0.8-2.9c-7.1-1.3-13.4-4.4-18.9-9.1
			C1456.8,1003.2,1454.6,1005.3,1456.1,1006.6L1456.1,1006.6z"/>
	</g>
</g>
<g>
	<g>
		<path class="st4" d="M1477.4,1001.3c-6.6,6.6-12.7,13.7-18.3,21.2c-1.1,1.6,1.5,3.1,2.6,1.5c5.4-7.3,11.4-14.2,17.8-20.6
			C1480.9,1002,1478.7,999.9,1477.4,1001.3L1477.4,1001.3z"/>
	</g>
</g>
<g>
	<g>
		<path class="st4" d="M1497.5,1011.3c-0.4,4.4-0.9,8.8-1.3,13.2c-0.1,1.5,2.1,2,2.8,0.8c1.8-3.3,2.2-7,3.5-10.6
			c2.6-7.5,9.3-5.1,14.6-1.8c1.6,1,3.1-1.6,1.5-2.6c-4.6-2.9-10.9-6-15.7-1.8c-4.4,3.8-3.8,10.5-6.4,15.3c0.9,0.3,1.9,0.5,2.8,0.8
			c0.4-4.4,0.9-8.8,1.3-13.2C1500.7,1009.3,1497.7,1009.4,1497.5,1011.3L1497.5,1011.3z"/>
	</g>
</g>
<g>
	<g>
		<path class="st4" d="M795.2,1142.1c-0.5,9.5-1,19-1.4,28.5c-0.1,1.9,2.9,1.9,3,0c0.5-9.5,1-19,1.4-28.5
			C798.3,1140.2,795.3,1140.2,795.2,1142.1L795.2,1142.1z"/>
	</g>
</g>
<g>
	<g>
		<path class="st4" d="M810.3,1174.2c0.7,3.2,1.4,6.3,2.1,9.5c0.4,1.9,3.3,1.1,2.9-0.8c-0.7-3.2-1.4-6.3-2.1-9.5
			C812.8,1171.5,809.9,1172.3,810.3,1174.2L810.3,1174.2z"/>
	</g>
</g>
<g>
	<g>
		<path class="st4" d="M825.6,1151.3c1.8-1.2,4-2.6,6.3-2.7c4.9,0,2.9,4.9,1,7.2c-2.8,3.7-5.5,7.1-7.5,11.4
			c-0.3,0.8-0.2,2.1,0.9,2.2c6.2,0.8,12.1-0.1,17.7-2.9c1.7-0.9,0.2-3.5-1.5-2.6c-4.8,2.4-10,3.3-15.4,2.6c0.3,0.7,0.6,1.5,0.9,2.2
			c1.9-4.2,4.6-7.5,7.4-11.2c1.7-2.3,3.5-5.2,2.5-8.1c-2.1-6.4-10-3.4-13.8-0.8C822.5,1149.7,824,1152.3,825.6,1151.3L825.6,1151.3z
			"/>
	</g>
</g>
<g>
	<g>
		<path class="st4" d="M854.8,1165.8c1,4.2,2.1,8.5,3.1,12.7c0.5,1.9,3.4,1.1,2.9-0.8c-1-4.2-2.1-8.5-3.1-12.7
			C857.2,1163.1,854.3,1163.9,854.8,1165.8L854.8,1165.8z"/>
	</g>
</g>
<g>
	<g>
		<path class="st4" d="M867.6,1146.9c2.8-2.1,6-2.4,9-0.5c-0.1-0.8-0.2-1.6-0.3-2.4c-1.9,2-3.8,3.9-5.7,5.9
			c-0.6,0.7-0.6,1.9,0.3,2.4c3.4,1.8,6.8,3.8,10.1,5.8c2.3,1.4,4,2.5,1.1,4.5c-1.2,0.8-4.5,3.6-6.1,3.2c0.4,0.5,0.7,1,1.1,1.4
			c-0.1,0.1-0.2,0.3-0.3,0.4c-0.6-0.1-1.2-0.2-1.8-0.2c0.1,0.1,0.2,0.2,0.3,0.3c1.5,1.2,3.6-0.9,2.1-2.1c-0.1-0.1-0.2-0.2-0.3-0.3
			c-0.5-0.4-1.3-0.6-1.8-0.2c-0.9,0.6-1.2,1-1.2,2.2c0,0.7,0.5,1.3,1.1,1.4c2.6,0.8,5-1.2,7.1-2.6c1.8-1.2,4.7-2.7,4.9-5.1
			c0.2-2.3-1.8-3.6-3.4-4.7c-3.7-2.4-7.6-4.6-11.4-6.6c0.1,0.8,0.2,1.6,0.3,2.4c1.9-2,3.8-3.9,5.7-5.9c0.7-0.7,0.5-1.8-0.3-2.4
			c-3.9-2.4-8.4-2.3-12,0.5C864.6,1145.4,866.1,1148,867.6,1146.9L867.6,1146.9z"/>
	</g>
</g>
<g>
	<g>
		<path class="st4" d="M898.9,1167.5c0.4,4.3,1.5,8.4,3.3,12.4c0.8,1.8,3.4,0.2,2.6-1.5c-1.6-3.4-2.6-7.1-2.9-10.9
			C901.8,1165.6,898.8,1165.6,898.9,1167.5L898.9,1167.5z"/>
	</g>
</g>
<g>
	<g>
		<path class="st4" d="M914.1,1141.2c-4.7,0.2-6.8,5.8-4.1,9.3c3.8,5,10.6,2.9,15.4,0.8c1.8-0.8,0.2-3.3-1.5-2.6
			c-2.8,1.2-6.1,2.6-9.2,1.5c-1.3-0.5-2.4-1.3-2.8-2.6c-0.4-1.5,0.4-3.4,2.2-3.5C916.1,1144.2,916.1,1141.2,914.1,1141.2
			L914.1,1141.2z"/>
	</g>
</g>
<g>
	<g>
		<path class="st4" d="M927.5,1137.9c-0.4,7.8-0.3,15.5,0.4,23.3c0.2,1.9,3.2,1.9,3,0c-0.7-7.8-0.8-15.5-0.4-23.3
			C930.6,1136,927.6,1136,927.5,1137.9L927.5,1137.9z"/>
	</g>
</g>
<g>
	<g>
		<path class="st4" d="M945.4,1161.2c0.7,6.3,1.5,12.7,2.2,19c0.2,1.9,3.2,1.9,3,0c-0.7-6.3-1.5-12.7-2.2-19
			C948.1,1159.3,945.1,1159.2,945.4,1161.2L945.4,1161.2z"/>
	</g>
</g>
<g>
	<g>
		<path class="st4" d="M963.2,1138.2c-3.1,1.7-3.2,5.7-1.1,8.3c1.6,2,4.2,2.7,6.3,3.9c2,1.1,4.1,2.8,4.7,5.2
			c0.6,2.6-2.1,6.7-4.9,4.4c-1.5-1.2-3.6,0.9-2.1,2.1c3.8,3.1,9.6,0.4,10.2-4.4c0.3-2.8-1.2-5.6-3.1-7.5c-1.5-1.4-13.1-6.9-8.4-9.4
			C966.4,1139.9,964.9,1137.3,963.2,1138.2L963.2,1138.2z"/>
	</g>
</g>
<g>
	<g>
		<path class="st4" d="M969.4,1136.2c6.1-1.7,12.3-2.4,18.6-2.1c1.9,0.1,1.9-2.9,0-3c-6.6-0.4-13,0.3-19.4,2.2
			C966.8,1133.9,967.6,1136.7,969.4,1136.2L969.4,1136.2z"/>
	</g>
</g>
<g>
	<g>
		<path class="st4" d="M1259.8,1144.3c0-0.4,0-0.7,0-1.1c0-0.8-0.7-1.5-1.5-1.5c-0.8,0-1.5,0.7-1.5,1.5c0,0.4,0,0.7,0,1.1
			c0,0.8,0.7,1.5,1.5,1.5C1259.1,1145.7,1259.8,1145.1,1259.8,1144.3L1259.8,1144.3z"/>
	</g>
</g>
<g>
	<g>
		<path class="st4" d="M1256.2,1135.7c-0.7,6.2-0.4,12.3,0.9,18.4c0.4,1.9,3.3,1.1,2.9-0.8c-1.2-5.8-1.5-11.6-0.8-17.6
			C1259.4,1133.8,1256.4,1133.8,1256.2,1135.7L1256.2,1135.7z"/>
	</g>
</g>
<g>
	<g>
		<path class="st4" d="M1270.5,1154.8c0,3.5,0,7,0,10.6c0,1.9,3,1.9,3,0c0-3.5,0-7,0-10.6
			C1273.5,1152.9,1270.5,1152.9,1270.5,1154.8L1270.5,1154.8z"/>
	</g>
</g>
<g>
	<g>
		<path class="st4" d="M1282.6,1140.4c3.9,0.1,7.9,0.3,11.8,0.4c-0.5-0.6-1-1.3-1.4-1.9c-2,5-4.9,9.5-8.4,13.6
			c-0.7,0.8-0.5,2.3,0.7,2.5c4.9,1,9.7,1,14.6-0.1c1.9-0.4,1.1-3.3-0.8-2.9c-4.4,1-8.7,1-13,0.1c0.2,0.8,0.4,1.7,0.7,2.5
			c3.9-4.5,7-9.4,9.2-14.9c0.4-0.9-0.6-1.9-1.4-1.9c-3.9-0.1-7.9-0.3-11.8-0.4C1280.6,1137.3,1280.6,1140.3,1282.6,1140.4
			L1282.6,1140.4z"/>
	</g>
</g>
<g>
	<g>
		<path class="st4" d="M1311.1,1157.4c1.9,0,1.9-3,0-3C1309.1,1154.4,1309.1,1157.4,1311.1,1157.4L1311.1,1157.4z"/>
	</g>
</g>
<g>
	<g>
		<path class="st4" d="M1309.5,1155.9c0.5,4.6,1.1,9.2,1.6,13.8c0.2,1.9,3.2,1.9,3,0c-0.5-4.6-1.1-9.2-1.6-13.8
			C1312.3,1154,1309.3,1154,1309.5,1155.9L1309.5,1155.9z"/>
	</g>
</g>
<g>
	<g>
		<path class="st4" d="M1323.9,1135.3c-1.1,2.5-2.2,5.1-3.3,7.6c-0.4,0.8-0.2,2,0.9,2.2c4.3,0.8,8.5,1,12.8,0.6c1.9-0.2,1.9-3.2,0-3
			c-4,0.4-8,0.2-12-0.5c0.3,0.7,0.6,1.5,0.9,2.2c1.1-2.5,2.2-5.1,3.3-7.6C1327.2,1135,1324.6,1133.5,1323.9,1135.3L1323.9,1135.3z"
			/>
	</g>
</g>
<g>
	<g>
		<path class="st4" d="M1334.8,1128.9c1.2,7.4,2.3,14.7,3.5,22.1c0.3,1.9,3.2,1.1,2.9-0.8c-1.2-7.4-2.3-14.7-3.5-22.1
			C1337.4,1126.2,1334.5,1127,1334.8,1128.9L1334.8,1128.9z"/>
	</g>
</g>
<g>
	<g>
		<path class="st4" d="M1351.7,1157.4c1.1,6.3,2.2,12.7,3.3,19c0.3,1.9,3.2,1.1,2.9-0.8c-1.1-6.3-2.2-12.7-3.3-19
			C1354.2,1154.7,1351.3,1155.5,1351.7,1157.4L1351.7,1157.4z"/>
	</g>
</g>
<g>
	<g>
		<path class="st4" d="M1372.6,1130.7c-3.7-0.2-5.9,3.9-4.3,7.1c1.6,3.1,5.6,4.3,8.8,3.3c3-0.9,5.4-3.9,4.3-7.1
			c-1-2.9-4.5-4.7-7.3-3c-1.6,1-0.1,3.6,1.5,2.6c1.2-0.7,2.8,0.4,3,1.7c0.2,1.5-1.1,2.5-2.4,3c-1.3,0.4-2.8,0.3-4-0.4
			c-1.5-0.9-2.7-4.3,0.2-4.1C1374.5,1133.8,1374.5,1130.8,1372.6,1130.7L1372.6,1130.7z"/>
	</g>
</g>
<g>
	<g>
		<path class="st4" d="M1374.2,1143.1c-2.2,2.6-7,0.5-8.6,4.4c-1.3,3.2,1.4,6.5,4.5,7.1c6,1.1,18.4-6.7,11.6-13.2
			c-1.4-1.3-3.5,0.8-2.1,2.1c4.4,4.2-7.6,10.7-10.6,7.2c-2.3-2.7,1.9-3.2,3.5-3.5c1.6-0.3,2.9-0.8,3.9-2
			C1377.6,1143.8,1375.5,1141.7,1374.2,1143.1L1374.2,1143.1z"/>
	</g>
</g>
<g>
	<g>
		<path class="st4" d="M1392.9,1153.8c-0.3,5.1,0.1,10.2,1.1,15.2c0.4,1.9,3.3,1.1,2.9-0.8c-1-4.8-1.3-9.5-1-14.4
			C1396.1,1151.8,1393.1,1151.8,1392.9,1153.8L1392.9,1153.8z"/>
	</g>
</g>
<g>
	<g>
		<path class="st4" d="M1412.5,1124.2c-0.3,6.4-1.5,13.6-0.8,19.9c0.2,2.2,2.1,5.1,4.5,3.4c1.6-1.1,0.1-3.7-1.5-2.6
			c0.2-0.1,0.2-5.2,0.2-5.9c0.1-1.6,0.1-3.3,0.2-4.9c0.1-3.3,0.3-6.6,0.4-9.9C1415.6,1122.3,1412.6,1122.3,1412.5,1124.2
			L1412.5,1124.2z"/>
	</g>
</g>
<g>
	<g>
		<path class="st4" d="M1436.5,1130.1c-5,3.7-9.8,9-9.5,15.6c0.2,5.3,4.1,11.2,9.9,11.1c4.6-0.1,9.5-4.5,8.6-9.3
			c-1-5.5-8.5-1.9-10.2,1.3c-0.9,1.7,1.7,3.2,2.6,1.5c1.7-3.3,4.4-2.6,4.2-0.1c-0.1,1.6-2.5,3-4,3.4c-3.8,1-6.9-2.5-7.8-5.8
			c-1.6-6.2,3.1-11.6,7.7-15.1C1439.6,1131.5,1438.1,1128.9,1436.5,1130.1L1436.5,1130.1z"/>
	</g>
</g>
<g>
	<g>
		<path class="st4" d="M1465.1,1147.1c-1.2,6.1-0.8,12,1.2,17.9c0.6,1.8,3.5,1,2.9-0.8c-1.8-5.3-2.3-10.7-1.2-16.3
			C1468.3,1146,1465.4,1145.2,1465.1,1147.1L1465.1,1147.1z"/>
	</g>
</g>
<g>
	<g>
		<path class="st4" d="M1487.9,1125.2c2.7-1.9,5.5-2.2,8.5-0.8c-0.2-0.7-0.4-1.4-0.5-2.1c-1.6,2.7-3.5,4.9-6.1,6.8
			c-0.7,0.5-1.1,1.7-0.3,2.4c2.1,1.8,4.2,3.8,5.2,6.4c1.6,4-0.2,10.9-6.1,9.3c-1.9-0.5-2.7,2.4-0.8,2.9c4.6,1.2,9-1.6,10.3-6.2
			c1.7-5.8-2.5-11.1-6.6-14.6c-0.1,0.8-0.2,1.6-0.3,2.4c3-2.2,5.2-4.7,7.2-7.8c0.4-0.7,0.2-1.7-0.5-2.1c-3.9-2-7.9-1.8-11.6,0.8
			C1484.8,1123.7,1486.3,1126.3,1487.9,1125.2L1487.9,1125.2z"/>
	</g>
</g>
<g>
	<g>
		<path class="st4" d="M1517.5,1128.1c2.9-0.2,9-0.9,6.7,4c-1.2,2.5-3.1,4.9-4.6,7.3c-1.7,2.7-5.9,6.9-5.3,10.5
			c0.5,2.5,3,3.4,5.2,3.8c5.7,1,11.8,0.8,17.5,1.2c1.9,0.1,1.9-2.9,0-3c-3-0.2-6-0.4-9-0.6c-1.2-0.1-2.4-0.2-3.6-0.2
			c-2.5-0.2-3.3,0.2-4.9-2.1c-1.7-2.5-0.8-2.6,0.7-5c0.7-1,1.3-2.1,2-3.1c1.5-2.4,3.4-4.8,4.6-7.3c1-2.1,1.9-5,0.5-7.1
			c-2-3-6.9-1.6-9.8-1.5C1515.6,1125.2,1515.6,1128.2,1517.5,1128.1L1517.5,1128.1z"/>
	</g>
</g>
<g>
	<g>
		<path class="st4" d="M1330.1,1232.9c-6-6.1-19-3.9-20.7,5.3c-0.8,4.5,3.1,7.5,7.1,5.1c2.3-1.3,3.3-3.5,4.5-5.7
			c0.4-0.7,1-2.1,1.7-2.5c1.7-1,3.9-0.5,4.9,1.1c1.2,2,0.8,4.8,0.6,7c-0.2,1.9,2.8,1.9,3,0c0.4-4,0.4-8.9-3.6-11.2
			c-2.9-1.7-5.9-0.6-7.9,1.9c-1.4,1.8-2.1,5.1-4.1,6.2c-3.1,1.6-3.8-1.3-2.5-3.5c0.6-1,1.3-1.8,2.2-2.4c3.8-2.8,9.3-2.6,12.6,0.7
			C1329.4,1236.4,1331.5,1234.3,1330.1,1232.9L1330.1,1232.9z"/>
	</g>
</g>
<g>
	<g>
		<path class="st4" d="M1338.3,1241c-0.8,4.3-1.6,8.7-2.4,13c-0.3,1.7,1.7,2.6,2.7,1.2c2.9-4.1,5.8-8.1,8.7-12.2c-0.9,0-1.7,0-2.6,0
			c1.9,3.2,2.7,6.8,2,10.5c-0.3,1.9,2.6,2.7,2.9,0.8c0.7-4.5,0-8.9-2.3-12.8c-0.6-1-2-0.9-2.6,0c-2.9,4.1-5.8,8.1-8.7,12.2
			c0.9,0.4,1.8,0.8,2.7,1.2c0.8-4.3,1.6-8.7,2.4-13C1341.5,1239.9,1338.6,1239.1,1338.3,1241L1338.3,1241z"/>
	</g>
</g>
<g>
	<g>
		<path class="st4" d="M1361.3,1241.4c0,2.8,0,5.6,0,8.4c0,1.9,3,1.9,3,0c0-2.8,0-5.6,0-8.4
			C1364.3,1239.5,1361.3,1239.5,1361.3,1241.4L1361.3,1241.4z"/>
	</g>
</g>
<g>
	<g>
		<path class="st4" d="M1361.4,1250.1c3.6-1.8,7.5-2.5,11.5-1.9c1.9,0.3,2.7-2.6,0.8-2.9c-4.8-0.7-9.4,0-13.8,2.2
			C1358.2,1248.3,1359.7,1250.9,1361.4,1250.1L1361.4,1250.1z"/>
	</g>
</g>
<g>
	<g>
		<path class="st4" d="M1383.5,1239.9c-2.3,6.3-3.4,12.7-3.3,19.4c0,1.9,3,1.9,3,0c-0.1-6.4,1-12.6,3.2-18.6
			C1387.1,1238.9,1384.2,1238.1,1383.5,1239.9L1383.5,1239.9z"/>
	</g>
</g>
<g>
	<g>
		<path class="st4" d="M1305.8,1276.9c28.4-2.9,57-2.9,85.4,0.1c1.9,0.2,1.9-2.8,0-3c-28.4-3-57-3-85.4-0.1
			C1303.9,1274.1,1303.9,1277.1,1305.8,1276.9L1305.8,1276.9z"/>
	</g>
</g>
<g>
	<g>
		<path class="st4" d="M1332.4,1291.6c-5.4-1.1-14.9,3.4-12,10.3c1,2.5,4,3.7,6.6,3.4c3.5-0.4,5.9-3.4,7.5-6.3c-0.9,0-1.7,0-2.6,0
			c1.8,2.9,4,5.2,6.9,7c1.6,1,3.1-1.6,1.5-2.6c-2.5-1.6-4.3-3.4-5.8-5.9c-0.6-1-2-1-2.6,0c-0.9,1.6-2,3.5-3.8,4.4
			c-2,1-5.5,0.5-4.9-2.9c0.6-3.6,5.4-5.2,8.5-4.5C1333.5,1294.9,1334.3,1292,1332.4,1291.6L1332.4,1291.6z"/>
	</g>
</g>
<g>
	<g>
		<path class="st4" d="M1345.6,1301.6c-0.5,3.7-1,7.5-1.5,11.2c-0.2,1.8,2.4,1.9,2.9,0.4c0.6-1.7,4.1-13.1,6.8-11.5
			c1.3,0.7,1.4,3.9,1.6,5.1c0.4,2.3,0.8,4.6,1.3,6.9c0.3,1.9,3.2,1.1,2.9-0.8c-0.6-3.4-0.9-7.3-2.1-10.6c-0.7-1.9-2-3.9-4.2-4.1
			c-2.3-0.2-3.7,1.6-4.6,3.4c-1.9,3.4-3.3,7.1-4.5,10.7c1,0.1,2,0.3,2.9,0.4c0.5-3.7,1-7.5,1.5-11.2
			C1348.8,1299.7,1345.8,1299.7,1345.6,1301.6L1345.6,1301.6z"/>
	</g>
</g>
<g>
	<g>
		<path class="st4" d="M1419.8,1261.9c5.6-0.5,11.1,0.4,16.2,2.8c1.7,0.8,3.3-1.8,1.5-2.6c-5.6-2.6-11.5-3.7-17.7-3.2
			C1417.9,1259.1,1417.9,1262.1,1419.8,1261.9L1419.8,1261.9z"/>
	</g>
</g>
<g>
	<g>
		<path class="st4" d="M1419.8,1273.5c4.9,0,9.9,0,14.8,0c1.9,0,1.9-3,0-3c-4.9,0-9.9,0-14.8,0
			C1417.9,1270.5,1417.9,1273.5,1419.8,1273.5L1419.8,1273.5z"/>
	</g>
</g>
<g>
	<g>
		<path class="st4" d="M1457.5,1261.1c-0.8,4.5-1.6,8.9-2.5,13.4c1,0.1,2,0.3,2.9,0.4c0.4-4.1,1.3-8.5,4-11.8
			c2.9-3.3,8.1-4.9,11.7-1.7c1.4,1.3,3.6-0.8,2.1-2.1c-3.9-3.5-9.7-3.3-13.9-0.2c-4.9,3.6-6.3,10-6.9,15.8c-0.2,1.7,2.6,2.1,2.9,0.4
			c0.8-4.5,1.6-8.9,2.5-13.4C1460.8,1260,1457.9,1259.2,1457.5,1261.1L1457.5,1261.1z"/>
	</g>
</g>
<g>
	<g>
		<path class="st4" d="M766.6,1242.8c-1.5-2.7-4.8-3.5-7.6-2.1c-3.4,1.6-4.4,5.8-4.5,9.3c-0.1,2.8,0.9,6.2,4.4,5.7
			c1.9-0.3,3.3-1.7,4.5-3c2.2-2.5,4.2-5.3,6.3-8c-0.8-0.1-1.6-0.2-2.4-0.3c2,3.5,4.1,7.1,6.1,10.6c1,1.7,3.6,0.2,2.6-1.5
			c-2-3.5-4.1-7.1-6.1-10.6c-0.4-0.8-1.7-1.1-2.4-0.3c-1.3,1.7-2.7,3.4-4,5.1c-1.1,1.4-3.2,5.1-5.1,4.2c-4-2,2.6-12.8,5.6-7.5
			C765,1246,767.6,1244.4,766.6,1242.8L766.6,1242.8z"/>
	</g>
</g>
<g>
	<g>
		<path class="st4" d="M783.8,1257.2c-0.3,2.7-0.7,5.4-1,8.1c1,0,2,0,3,0c-0.1-1.4,0.1-2.8,0.6-4.1c0.2-0.4,1-2.4,1.5-2.6
			c1-0.4,1.6,1,1.8,1.6c1,2.7,2,5.5,3,8.2c0.7,1.8,3.6,1,2.9-0.8c-1-2.7-2-5.5-3-8.2c-0.7-1.8-1.3-4.1-3.5-4.3
			c-4.7-0.5-6.4,6.7-6.3,10.2c0.1,2,2.8,1.9,3,0c0.3-2.7,0.7-5.4,1-8.1C787,1255.3,784,1255.3,783.8,1257.2L783.8,1257.2z"/>
	</g>
</g>
<g>
	<g>
		<path class="st4" d="M805.2,1253.3c-1.9,3.1-2.7,6.6-2.3,10.3c0.2,1.9,3.2,1.9,3,0c-0.3-3.1,0.3-6,1.9-8.7
			C808.7,1253.1,806.2,1251.6,805.2,1253.3L805.2,1253.3z"/>
	</g>
</g>
<g>
	<g>
		<path class="st4" d="M800.5,1260.8c4.1-0.9,8.1-1.2,12.3-1c1.9,0.1,1.9-2.9,0-3c-4.4-0.2-8.8,0.2-13.1,1.1
			C797.8,1258.3,798.6,1261.2,800.5,1260.8L800.5,1260.8z"/>
	</g>
</g>
<g>
	<g>
		<path class="st4" d="M821.9,1253c-0.3,5.6,1.2,10.9,4.4,15.5c1.1,1.6,3.7,0.1,2.6-1.5c-2.9-4.2-4.3-8.9-4-14
			C825,1251.1,822,1251.1,821.9,1253L821.9,1253z"/>
	</g>
</g>
<g>
	<g>
		<path class="st4" d="M844.5,1243.9c6-0.4,12-0.8,17.9-1.2c1.9-0.1,1.9-3.1,0-3c-6,0.4-12,0.8-17.9,1.2
			C842.5,1241,842.5,1244,844.5,1243.9L844.5,1243.9z"/>
	</g>
</g>
<g>
	<g>
		<path class="st4" d="M901.4,1237.2c-4.1-0.2-8.8-0.3-12.1,2.5c-2.3,1.9-3.4,5.3-2.5,8.2c0.9,3,3.9,4.6,7,3.8
			c4.5-1.2,6.1-6,8.9-9.2c-0.8-0.1-1.6-0.2-2.4-0.3c1.4,2.1,2.7,4.2,4.1,6.2c1.1,1.6,3.7,0.1,2.6-1.5c-1.4-2.1-2.7-4.2-4.1-6.2
			c-0.5-0.8-1.7-1.1-2.4-0.3c-1.7,1.9-2.7,4.2-4.4,6.1c-1.9,2.1-6.2,3.9-6.6-0.3c-0.6-6.3,7.7-6.2,11.9-6
			C903.3,1240.3,903.3,1237.3,901.4,1237.2L901.4,1237.2z"/>
	</g>
</g>
<g>
	<g>
		<path class="st4" d="M915.6,1253.5c-0.8,2.4-1.1,4.9-0.9,7.4c0.2,1.5,2.7,2.2,2.9,0.4c0.4-2.7,1.4-5.2,3.1-7.3
			c-0.8-0.1-1.6-0.2-2.4-0.3c2.1,3.7,4.2,7.4,6.2,11.1c0.9,1.7,3.5,0.2,2.6-1.5c-2.1-3.7-4.2-7.4-6.2-11.1c-0.4-0.8-1.8-1.1-2.4-0.3
			c-2,2.6-3.3,5.4-3.9,8.7c1,0.1,2,0.3,2.9,0.4c-0.3-2.3,0-4.4,0.7-6.6C919.1,1252.5,916.2,1251.7,915.6,1253.5L915.6,1253.5z"/>
	</g>
</g>
<g>
	<g>
		<path class="st4" d="M947.2,1237.4c4.2-0.7,8.4-1.5,12.6-2.2c1.9-0.3,1.1-3.2-0.8-2.9c-4.2,0.7-8.4,1.5-12.6,2.2
			C944.5,1234.8,945.3,1237.7,947.2,1237.4L947.2,1237.4z"/>
	</g>
</g>
<g>
	<g>
		<path class="st4" d="M942.6,1249.2c7.4-0.7,14.8-1.5,22.2-2.2c1.9-0.2,1.9-3.2,0-3c-7.4,0.7-14.8,1.5-22.2,2.2
			C940.7,1246.4,940.7,1249.4,942.6,1249.2L942.6,1249.2z"/>
	</g>
</g>
<g>
	<g>
		<path class="st4" d="M996.8,1215.4c1.6,11.5,4.4,22.7,8.2,33.6c0.6,1.6,2.9,1.4,2.9-0.4c0.4-14.1-23.5-9.1-22.5,3
			c0.5,6,8.2,7.7,13.1,8.1c7.5,0.7,14.6-1.8,20.5-6.4c1.5-1.2-0.6-3.3-2.1-2.1c-5.9,4.7-13.6,6.7-21,5.1c-1.4-0.3-3.3-0.6-4.5-1.4
			c-2.5-1.7-2.6-6.4-0.5-8.6c3.7-3.7,14.3-6,14.1,2.3c1-0.1,2-0.3,2.9-0.4c-3.9-10.9-6.6-22.2-8.2-33.6
			C999.4,1212.7,996.5,1213.6,996.8,1215.4L996.8,1215.4z"/>
	</g>
</g>
<g>
	<g>
		<path class="st4" d="M745.2,1206c75.1-6.2,150.2-14.1,224.9-23.7c20.7-2.7,41.4-5.4,62.1-8.3c-0.6-0.5-1.3-1-1.9-1.4
			c3.8,37.2,10,74,18.8,110.3c0.3-0.6,0.7-1.2,1-1.8c-55.2,8.8-110.4,17.5-165.5,26.3c-27.6,4.4-55.2,8.8-82.8,13.1
			c-12.4,2-25.6,5.1-38.2,2.8c-6.1-1.1-14.4-3.7-16.8-10.1c-2.2-6-2.6-13.1-3.9-19.4c-6-29-14.5-57.4-25.1-85
			c-0.3,0.6-0.7,1.2-1,1.8c14.4-4.8,29.3-6.9,44.4-6.1c1.9,0.1,1.9-2.9,0-3c-15.4-0.7-30.6,1.4-45.2,6.3c-0.7,0.2-1.4,1.1-1,1.8
			c10.1,26.2,18.2,53,24.1,80.4c1.4,6.5,2.6,13,3.9,19.4c1.1,5.6,2.7,9.3,7.7,12.3c9.5,5.8,21.3,5.8,32,4.6c27.8-3.1,55.4-8.6,83-13
			c28.9-4.6,57.8-9.2,86.7-13.8c32.8-5.2,65.7-10.4,98.5-15.6c0.8-0.1,1.2-1.1,1-1.8c-8.7-36-14.9-72.6-18.7-109.5
			c-0.1-1.1-0.9-1.6-1.9-1.4c-74.2,10.4-148.6,19.2-223.3,26.4c-21,2-42,3.9-63,5.6C743.2,1203.1,743.2,1206.1,745.2,1206
			L745.2,1206z"/>
	</g>
</g>
<g>
	<g>
		<path class="st4" d="M1236.1,1206.2c-4.1,29.7-6.2,59.6-5.9,89.5c0.1,14.9,0.8,29.8,2,44.6c0.3,3.7,0.1,9,3.4,11.7
			c4,3.2,11.8,1.6,16.4,1.7c61.5,0.2,123,0.3,184.5-2.5c15.2-0.7,30.4-1.6,45.5-2.7c7.3-0.5,14.5-1.1,21.7-1.7
			c6.6-0.6,14.2-0.3,20.6-2.1c3.6-1,5.5-3.3,5.1-7.1c-0.7-6.8-2.9-13.6-3.9-20.4c-2.1-14.8-2.8-29.7-3.3-44.6
			c-0.5-14.4-0.8-28.9-2-43.3c-0.6-6.7-1.3-13.4-2.4-20c-0.8-5.2-1.2-11.9-5.5-15.5c-3.4-2.9-8.1-3.2-12.3-3.1
			c-7.5,0.3-15.1,1.2-22.6,1.7c-15.1,1-30.3,1.8-45.4,2.2c-34.3,1.1-68.6,1-102.9-0.1c-31.1-1-62.9-3.3-92.9,6.7
			c-1.8,0.6-1,3.5,0.8,2.9c25.5-8.5,52.4-8,78.9-7c27.5,1,55,1.5,82.5,1.3c28-0.3,56.1-1.3,84-3.3c6.3-0.4,12.8-1.4,19.1-1.4
			c3.2,0,6.8,0.3,9.3,2.6c2.8,2.7,3.2,7.4,3.8,11c2.4,13.5,3.3,27.1,3.9,40.8c1.1,25.8,0.8,51.8,5.4,77.3c0.6,3.3,1.9,6.8,2.1,10.1
			c0.6,7.3-4.5,6.7-9.4,7.2c-7.2,0.7-14.5,1.3-21.7,1.9c-14.2,1.1-28.3,2.1-42.5,2.9c-55.8,3.1-111.7,3.5-167.6,3.4
			c-7.6,0-15.2,0-22.8-0.1c-4,0-7.9,0-11.9,0c-4.4,0-10.9,1.2-13.9-3.1c-1.6-2.3-1-8.2-1.2-11.1c-0.3-3.9-0.5-7.8-0.8-11.6
			c-0.4-7.8-0.7-15.5-0.8-23.3c-0.5-31.6,1.4-63.2,5.8-94.5C1239.2,1205.1,1236.3,1204.3,1236.1,1206.2L1236.1,1206.2z"/>
	</g>
</g>
</svg>
