<?xml version="1.0" encoding="utf-8"?>
<!-- Generator: Adobe Illustrator 22.0.1, SVG Export Plug-In . SVG Version: 6.00 Build 0)  -->
<svg version="1.1" id="Layer_1" xmlns="http://www.w3.org/2000/svg" xmlns:xlink="http://www.w3.org/1999/xlink" x="0px" y="0px"
	 viewBox="0 0 560 288" style="enable-background:new 0 0 560 288;" xml:space="preserve">
<style type="text/css">
	.st0{fill:#FFAF74;}
	.st1{fill:#FFFFFF;}
	.st2{fill:#FFBD9F;}
	.st3{fill:#FFC794;}
	.st4{fill:#FFB17F;}
	.st5{fill:#0090E9;}
	.st6{fill:#808285;}
	.st7{fill:#DEFF00;}
	.st8{fill:#CFDF00;}
	.st9{fill:#D5DF00;}
</style>
<g>
	<path class="st0" d="M67.1,118c-10.6-9.9-6.9-25.2,7.8-32.5c9.2-4.5,21.1-5.9,32.6-6.6c12.8-0.8,25.6-1.1,38.4-0.7
		c6.5,0.2,13.4,0.5,19,2.8c5.1,2.1,8.6,5.5,11.7,8.9c4.3,4.8,8.1,9.8,11.5,14.9c4.3,6.6,7.2,15.3-0.6,20.3"/>
	<g>
		<path d="M68.1,116.9c-11-11-3.6-25.2,8.9-30.8c14.2-6.3,31.5-6.1,46.8-6.5c8-0.2,16-0.2,23.9,0c8.6,0.3,17.2,1.3,23.8,7.2
			c5.5,4.9,10.2,11.1,14.3,17.2c4,6,8.2,14.3,0.8,19.7c-1.5,1.1-0.1,3.7,1.5,2.6c10.3-7.5,3.7-19.1-2.2-27.2
			c-3.9-5.4-8.2-11.1-13.5-15.3c-5.1-4.2-11.2-6-17.7-6.7c-16.9-1.8-34.8-0.8-51.7,0.5c-12.8,1-28,2.8-37.4,12.5
			c-8.2,8.5-8.1,20.6,0.2,28.8C67.4,120.4,69.5,118.3,68.1,116.9L68.1,116.9z"/>
	</g>
</g>
<g>
	<path class="st1" d="M65.8,89.3c-2.1-1.3-5.6-0.9-7.7,0.3c-2.2,1.2-3.2,3-4.1,4.8c-2.3,4.9-3.3,10.1-4.3,15.2
		c-0.5,2.7-1,5.4-1.5,8.1c-1.2,6.5-2.4,13-1.5,19.5c0.1,0.6,0.2,1.2,0.8,1.7c0.9,0.7,2.6,0.7,3.8,0.2c1.2-0.5,2-1.3,2.6-2.1
		c4.4-5.4,6.1-11.8,4.6-17.8c-0.6-2.6-1.3-6,2.3-7.2"/>
	<g>
		<path d="M66.6,88c-7.8-3.3-13,2.6-15.4,9.3c-1.8,5.2-2.6,10.6-3.7,16c-1.1,5.7-2.3,11.4-2.6,17.1c-0.1,2.7-0.8,7.9,1.8,9.8
			c2.4,1.7,5.7,0.4,7.6-1.3c3.1-2.9,5.2-7.5,5.9-11.7c0.6-3.2-2-12.4,1.4-13.9c1.8-0.8,0.2-3.4-1.5-2.6c-3.5,1.6-3.8,4.4-3.2,7.9
			c0.6,3.9,1,7-0.3,10.9c-0.7,1.9-1.7,3.8-2.9,5.4c-1.2,2.7-3.1,2.8-5.7,0.4c-0.1-1-0.1-1.9-0.1-2.9c0-7.8,2-15.6,3.5-23.2
			c1.2-6.3,3.6-23,13.7-18.6C66.8,91.4,68.3,88.8,66.6,88L66.6,88z"/>
	</g>
</g>
<g>
	<path class="st1" d="M70.4,89c1.5,4.6,1,9.4-1.5,13.8c-2,3.6-5.4,7.2-4.9,11"/>
	<g>
		<path d="M69,89.4c1.6,5.8,0.1,10.4-3,15.4c-1.9,2.9-3.5,5.5-3.4,9.1c0,1.9,3,1.9,3,0c-0.1-5.1,4.6-8.9,6.2-13.6
			c1.3-3.8,1.2-7.8,0.1-11.6C71.4,86.7,68.5,87.5,69,89.4L69,89.4z"/>
	</g>
</g>
<g>
	<path class="st1" d="M177.7,87.9c5.6,0.8,11.3-0.1,17-0.1c5.7-0.1,12.1,0.9,15.1,4c2.5,2.6,2.1,5.9,1.4,8.9
		c-1.5-1.1-2.9-2.3-4.4-3.4c-0.5-0.4-1.1-0.8-1.8-0.9c-1.5-0.2-2.8,0.9-3.2,1.9c-0.4,1-0.5,2.2-1.6,2.9c-0.8,0.5-2.2,0.8-2.4,1.5
		c-0.1,0.6,0.6,1.1,1,1.6c0.7,0.8,0.9,1.8,0.2,2.6c-0.7,0.8-2.4,1.1-3.5,0.6c-1.1-0.6-0.7-2,0.6-2.1"/>
	<g>
		<path d="M177.7,89.4c8.8,1,35.2-5,32.1,10.9c0.7-0.3,1.5-0.6,2.2-0.9c-3.8-2.9-7.1-6.7-11.1-2.4c-1.1,1.1-2.4,2.6-3.3,3.7
			c-0.3,0.4-0.9,0.7-1,1.1c-0.4,1,1.2,4.2,0.4,4.7c1.7-0.9,0.2-3.4-1.5-2.6c-5.1,2.5,1.5,7.6,4.7,3.9c2.1-2.4-0.8-3.1-0.1-5
			c-0.1,0.2,2.7-2.8,2.8-2.8c2.9-2.7,5.2,0,7.7,2c0.7,0.6,2,0,2.2-0.9c3.9-19.9-23.8-13.5-35-14.7C175.8,86.2,175.8,89.2,177.7,89.4
			L177.7,89.4z"/>
	</g>
</g>
<g>
	<path class="st1" d="M70.3,120.1c4,4.5,7.9,9.1,11.9,13.6"/>
	<g>
		<path d="M69.2,121.1c4,4.5,7.9,9.1,11.9,13.6c1.3,1.5,3.4-0.7,2.1-2.1c-4-4.5-7.9-9.1-11.9-13.6C70,117.5,67.9,119.7,69.2,121.1
			L69.2,121.1z"/>
	</g>
</g>
<g>
	<path class="st2" d="M89.4,130.3c-0.6,4-7.4,6-12.4,8.3c-12.3,5.6-16.8,16.3-17.2,26.2c-0.5,9.9,2.1,19.9-0.2,29.7
		c-1.6,6.5-5.2,12.7-9.3,18.7c-0.9,1.3-1.8,2.6-1.4,4c0.6,2.3,4.8,3.5,8.1,3c3.4-0.6,5.8-2.5,7.3-4.6c4.2-6.2,1.1-14.2,7.3-19.6
		c2.2-1.9,5.7-4.1,4.2-6.2c-0.6-0.8-1.7-1.4-2.5-2c-2.3-1.9-2-5,0.7-6.7s7.4-1.7,10.1,0c1.8,1.1,3.2,2.9,5.6,2.8
		c1.6,0,2.7-0.9,3.7-1.7c3.3-2.9,5.9-6.1,7.7-9.5"/>
	<g>
		<path d="M87.9,129.9c-1.1,3.8-6.9,5.3-10.1,6.7c-3,1.3-5.9,2.8-8.4,4.9c-4.5,3.6-7.7,8.5-9.5,14c-2.2,6.7-1.8,13.6-1.3,20.5
			c0.7,10.4,0.2,19.6-4.9,28.9c-2,3.5-9.1,10.4-5.2,14.6c3.3,3.6,9.9,2.7,13.6,0.3c5.3-3.5,5.6-9.4,6.7-15.1
			c0.8-4.2,2.8-6.5,5.9-9.2c1.4-1.3,3.1-2.8,2.9-4.9c-0.1-1.4-0.8-1.5-1.5-2.5c-0.1-0.2-0.6-0.4-0.8-0.6c-1.8-2.4-2.2-4.9,1.3-5.9
			c5-1.4,7.1,2.5,11.3,3.6c6.3,1.6,11.9-7.2,14.4-11.7c0.9-1.7-1.7-3.2-2.6-1.5c-1.7,3-3.7,5.7-6.2,8.1c-4.2,3.9-7.3-0.3-11.4-1.3
			c-3.7-0.9-8.9-0.3-11.1,3.2c-0.7,1.2-1,2.5-0.7,3.9c0.4,2.1,2.2,2.4,3.1,3.9c1.7,3.1-3.4,5.5-4.9,7.6c-1.4,2-2.1,4.2-2.5,6.6
			c-0.5,2.6-0.6,5.2-1.4,7.7c-1.5,4.5-6.9,9.2-12,6.8c-4-1.9,2.4-9.4,3.8-12c1.6-2.9,3-5.9,4-9c4.3-13.6-2.1-28.2,2.7-41.6
			c2.6-7.2,7.9-12.6,14.7-15.8c4.6-2.2,11.6-3.6,13.1-9.2C91.3,128.9,88.4,128.1,87.9,129.9L87.9,129.9z"/>
	</g>
</g>
<g>
	<path class="st3" d="M79.8,182.5c0.2,3.8,2.2,7.6,5.5,10.7c2,1.9,4.6,3.7,4.9,6c0.1,1.1-0.3,2.2-0.7,3.3c-1.4,3.5-2.8,6.9-4.2,10.4
		c-0.4,1.1-0.9,2.2-0.3,3.3c0.6,1.2,2.3,2,3.9,2.7c16.6,6.9,36,10.8,55.6,11"/>
	<g>
		<path d="M78.3,182.5c0.4,3.4,1.5,6.3,3.5,9c1.2,1.6,2.6,2.8,4.1,4.2c2.7,2.4,2.4,5.9,1.2,9c-1.3,3.1-4.7,8.2-3.5,11.7
			c0.7,2.2,3.1,3.1,5,3.9c17.5,7.6,37.1,10.7,56,11c1.9,0,1.9-3,0-3c-17.2-0.3-34.4-3.1-50.5-9.1c-1.7-0.6-4.1-1.2-5.6-2.3
			c-2.8-2.1-1.4-4.5-0.3-7.2c1.3-3.2,3.9-7.2,3.6-10.7c-0.2-2.2-1.8-3.7-3.3-5.2c-3.5-3.4-6.6-6.4-7.2-11.5
			C81.1,180.6,78.1,180.5,78.3,182.5L78.3,182.5z"/>
	</g>
</g>
<g>
	<path class="st1" d="M106.8,223.4c-0.2-1.1,1.7-1.7,3.2-2c6.5-1.3,13.3-2.1,20.1-2.2c2.1,0,4.3,0,6.2,0.6c1.9,0.5,3.6,1.7,3.8,3.1
		c0.1,0.7-0.1,1.4,0.3,2c0.4,0.6,1.4,0.9,2.2,1.1c1.8,0.5,3.7,1.1,5.6,0.8c1.9-0.3,3.5-1.7,2.5-2.8c-0.3-0.3-0.8-0.6-1-1
		c-0.3-0.6,0.4-1.3,0.8-1.9c1.6-2.3-0.6-5-2.7-7.1c-1.3-1.3-2.8-2.7-5.1-2.9c-2.5-0.3-4.8,0.9-7,1.8c-6.3,2.5-14.9,2.1-20.7-0.9"/>
	<g>
		<path d="M108.2,223.8c0.4-1.4,6.4-1.7,7.5-1.9c3.2-0.5,6.5-0.8,9.7-1c2.8-0.2,6.5-0.7,9.2,0.1c1.9,0.6,3,1.6,4.1,3.3
			c0.2,0.4,0.1,1,0.4,1.3c3,3.2,13.4,4.8,13.2-1.6c0-0.9-0.4-1.4-0.3-2.5c0.1-1.8,0.8-2.5,0-4.4c-1.2-2.8-4.3-5.9-7.1-7
			c-3.9-1.5-7.3,0.7-10.9,1.8c-5.9,1.8-12.6,1.4-18.1-1.2c-1.7-0.8-3.3,1.8-1.5,2.6c6.5,3.1,14.3,3.7,21.1,1.3
			c3.1-1.1,6-2.7,9.4-1.1c3.3,1.5,3.4,5.2,3.5,8.2c0,0.3,0.1,1.9,0,2.1c-1.2,2.4-5.6,1.1-6.9-1.1c-3.6-6.1-10.6-5.1-17.1-4.7
			c-4.4,0.3-8.8,0.8-13.2,1.6c-2.4,0.5-5.2,0.8-6,3.4C104.8,224.9,107.7,225.7,108.2,223.8L108.2,223.8z"/>
	</g>
</g>
<g>
	<path class="st1" d="M180.6,194.2c7.7-0.4,14.7,4.2,15.9,9.3s-2.2,10.2-7.3,14.1c-3.9,3-8.9,5.9-9.6,9.8c-0.3,1.7,0.1,3.9-2.1,4.8
		c-1,0.4-2.2,0.4-3.3,0.4c-8.4,0-16.9,0.1-25.3,0.1c-2.3,0-4.8,0-6.7-0.8c-1.8-0.8-3.7-2.2-5.7-1.6"/>
	<g>
		<path d="M180.6,195.7c10-0.1,19.3,7.9,11.2,17.4c-3.8,4.4-10.8,6.8-13.2,12.4c-0.2,0.6-0.2,1.4-0.5,1.9c-1.4,2.6-3.1,3.3-5.9,3.7
			c-4.3,0.6-9.3,0-13.6,0c-3.8,0-7.7,0.2-11.5,0c-3.8-0.2-6.9-2.7-10.6-2.4c-1.9,0.2-1.9,3.2,0,3c2.7-0.2,5.8,1.9,8.5,2.3
			c2.2,0.3,4.6,0.2,6.8,0.1c5.8,0,11.7,0,17.5-0.1c3.1,0,8.2,0.9,10.6-1.9c0.8-1,0.9-2.1,1.1-3.2c0.9-4,2.8-5.5,6-7.9
			c5.6-4.2,12.9-10.1,11-18.1c-1.8-7.4-10.6-10.4-17.3-10.4C178.7,192.7,178.7,195.7,180.6,195.7L180.6,195.7z"/>
	</g>
</g>
<g>
	<path class="st1" d="M153,218.7c2.1,1.7-0.6,4.2-3.5,5.3s-6.4,2.1-7,4.3c-0.4-1.3,0.1-2.7,1.4-3.6c0.5,1,0.2,2.3-0.8,3.1"/>
	<g>
		<path d="M151.9,219.8c1.4,1.5-5.7,3.9-6.5,4.2c-1.9,0.8-3.6,1.9-4.4,3.9c1,0,1.9,0,2.9,0c-0.2-1,0.3-1.6,1-2.2
			c-0.8-0.2-1.7-0.4-2.5-0.7c0.4,0.7,0.2,1.2-0.5,1.6c-1.4,1.3,0.7,3.5,2.1,2.1c1.3-1.2,1.9-2.8,1.2-4.6c-0.4-1.1-1.6-1.4-2.5-0.7
			c-1.6,1.4-2.3,3-1.8,5.1c0.4,1.6,2.4,1.3,2.9,0c0.5-1.4,2.9-2.1,4.2-2.6c1.6-0.6,3.2-1.1,4.6-2.2c2.2-1.6,3.5-4.1,1.3-6.3
			C152.7,216.3,150.6,218.4,151.9,219.8L151.9,219.8z"/>
	</g>
</g>
<g>
	<path class="st1" d="M192.4,127.4c5,5.3,10.2,10.8,12.5,16.8c2.5,6.4,2,13.6,7.6,19.1"/>
	<g>
		<path d="M191.3,128.5c5.7,6.1,11.3,12.1,13.5,20.4c1.5,5.8,2.5,11,6.7,15.5c1.3,1.4,3.4-0.7,2.1-2.1c-4.9-5.4-4.7-12.3-7.4-18.8
			c-2.7-6.7-7.9-12-12.8-17.1C192.1,125,190,127.1,191.3,128.5L191.3,128.5z"/>
	</g>
</g>
<g>
	<path class="st4" d="M210.6,164.3c3.5,11.8,22.1,19.2,28.5,30.5c2.9,5.1,3.1,10.7,2.8,16.1c-0.1,1.1-0.2,2.2-0.9,3.2
		c-0.8,1.1-2.2,1.9-3.5,2.8c-2.6,1.8-4.6,4.1-5.6,6.5c-0.4,1-0.7,2-1.8,2.7c-0.9,0.6-2.3,0.9-3.6,1c-10.4,1.2-23-2.1-30.7,2.6
		c-5.7-0.7-11.6-0.9-17.4-0.5"/>
	<g>
		<path d="M209.1,164.7c2.7,8,9.8,13.1,16.2,18.2c3.5,2.8,7.1,5.6,10,9.1c3.8,4.6,6.9,12.9,5,18.9c-1,3.4-4,4.6-6.3,6.9
			c-1.6,1.6-2.3,3.3-3.5,5c-3.5,5-12.7,3.1-18,2.9c-5.1-0.2-9.8,0-14.7,1.5c-5.9,1.8-13.1,0.3-19.4,0.6c-1.9,0.1-1.9,3.1,0,3
			c3.9-0.2,7.8-0.2,11.6,0c3.8,0.2,5.4,0.6,8.7-0.7c6-2.4,13-1.3,19.2-1.2c4.1,0.1,10.9,0.9,14-2.5c1.7-1.9,2.2-4.5,4.2-6.5
			c1.8-1.8,4.6-2.8,6.1-5c2.6-3.9,1.4-11.5,0.2-15.8c-1.3-4.7-4.1-8.5-7.6-11.9c-7.4-7.3-19.4-12.9-22.9-23.3
			C211.4,162.1,208.5,162.9,209.1,164.7L209.1,164.7z"/>
	</g>
</g>
<g>
	<path class="st1" d="M184.3,193.6c7-0.4,13.1,4,13.9,8.6s-2.7,9.1-7.4,12.5c-4.8,3.4-11.3,6.5-12.1,11.2"/>
	<g>
		<path d="M184.3,195.1c4.3,0,9.8,1.4,11.9,5.7c2.8,5.8-3.7,11-7.9,13.8c-4.2,2.9-9.6,5.6-11,10.9c-0.5,1.9,2.4,2.7,2.9,0.8
			c1.4-5.5,8.7-8.1,12.8-11.3c3.1-2.5,6.1-5.8,6.7-9.8c1.4-8.6-8.3-13-15.4-13C182.4,192.1,182.4,195.1,184.3,195.1L184.3,195.1z"/>
	</g>
</g>
<g>
	<path class="st1" d="M210.2,216.8c5.4,1.4,10.2,3.7,14.8,6c9.2,4.6,18.3,9.1,27.5,13.7c1.1,0.5,2.2,1.1,3.4,1.3
		c1.6,0.3,3.4,0.1,5.1,0c18.9-2.1,38.3-4.3,54.3-11.2c-3-2.4-9.4-2.5-12.5-0.2c-1.1,0.8-1.9,1.9-3,2.7c-2.4,1.7-6.3,2-9.8,2.2
		c-5.4,0.3-10.8,0.7-16.3,1c-6.4,0.4-13.4,0.7-19-1.4c-5.4-2.1-8.6-6.1-14.1-8c-2-0.7-4.3-1.1-6-2c-1.5-0.8-2.5-1.9-3.5-3
		c-2.8-3.1-5.7-6.2-8.5-9.3"/>
	<g>
		<path d="M209.8,218.3c9.9,2.7,19.1,8.2,28.2,12.7c7.3,3.6,14.6,9,23,8.3c18.4-1.6,37.6-4.1,54.7-11.3c1.2-0.5,1.5-2,0.4-2.7
			c-4.1-2.7-10.3-2.9-14.4,0.1c-2,1.5-3.6,3.1-6.1,3.8c-2.3,0.7-5,0.6-7.4,0.8c-5.1,0.3-10.2,0.7-15.3,1c-5.1,0.3-10.4,0.6-15.3-0.7
			c-4.4-1.2-7.6-3.9-11.4-6.3c-3.7-2.3-8.4-2.7-11.8-5.2c-4-2.9-7.3-7.6-10.6-11.3c-1.3-1.4-3.4,0.7-2.1,2.1
			c3.3,3.6,6.4,7.7,10.1,10.9c2.9,2.5,6.5,2.9,9.8,4.4c4,1.8,7.2,4.9,11.1,6.7c3.5,1.7,7.5,2.3,11.3,2.5c9.5,0.4,19.7-0.4,29.1-1.5
			c2.7-0.3,5.5-0.8,7.8-2.4c2.3-1.6,3.6-3.3,6.6-3.8c2.5-0.4,5,0.1,7.2,1.5c0.1-0.9,0.2-1.8,0.4-2.7c-16.9,7-35.8,9.6-53.9,11.2
			c-5,0.4-8.5-1.5-12.9-3.6c-4.6-2.3-9.2-4.6-13.7-6.8c-7.8-3.9-15.4-8.1-23.8-10.5C208.7,214.9,207.9,217.8,209.8,218.3
			L209.8,218.3z"/>
	</g>
</g>
<g>
	<path class="st1" d="M198.7,132.7c3.9-5,8.8-9.6,14.6-13.7c0.6-0.4,1.2-0.9,2.1-1s1.9,0.3,1.8,0.9c-4.3-1-6.2-4.6-5.7-7.6
		c0.1-0.4,0.2-0.8,0.6-1.1c0.5-0.3,1.1-0.3,1.7-0.3c1.8,0,3.6,0,5.5-0.1c0.8,0,1.7,0,2.2,0.4c0.5,0.4,0.1,1.2-0.7,1.1
		c2.4-0.5,4,1.5,4.6,3.1c0.5,1.2,0.9,2.4,1.4,3.6c0.6,1.5,1.2,3.1,0.8,4.6c-0.4,1.4-1.6,2.6-2.9,3.8c-3.4,3.1-7.5,5.9-12.1,8.3
		c-2.2,1.1-4.7,2.5-4.8,4.3c0,0.9-0.3,2.3-1.6,2"/>
	<g>
		<path d="M199.8,133.7c1.5-1.9,14.3-16.2,16.4-13.8c0.5-0.8,1-1.7,1.5-2.5c-2.1-0.7-6.7-3.7-3.8-6c1.2,0,2.4,0,3.6,0
			c1.5,0.5,2.4,0,2.9-1.5c-1.7,0.3-1.3,3,0.4,2.9c2.8,0,4.1,3.5,4.6,5.7c0.6,2.8,0.1,4.7-1.8,7c-1.9,2.4-5.5,4.4-8.1,6
			c-2.4,1.5-5.3,2.5-7.4,4.4c-0.3,0.3-2.5,3.9-2.4,3.8c-1.9,0.3-1.1,3.2,0.8,2.9c1.5-0.3,1.5-0.6,2.3-1.7c1.1-1.5-0.6-1.2,1.8-3.3
			c0.9-0.8,2.3-1.3,3.4-1.9c4.5-2.5,9.3-5.5,12.9-9.3c3.1-3.4,2.2-6.5,0.6-10.5c-1.3-3.4-2.8-6.1-6.8-6c0.1,1,0.3,2,0.4,2.9
			c1.7-0.3,2.7-2.1,1.3-3.6c-1.6-1.8-8.5-1.4-10.4-0.5c-2.1,0.9-2.5,2.9-2,5.1c0.7,3.5,3.5,5.5,6.7,6.6c1.5,0.5,2.3-1.4,1.5-2.5
			c-4.8-5.9-18,10.6-20.6,13.8C196.4,133.1,198.6,135.2,199.8,133.7L199.8,133.7z"/>
	</g>
</g>
<g>
	<path class="st1" d="M223.1,107.9c2.3-7.6,7.6-14.8,15.3-20.7c0.5-0.4,1-0.8,1.2-1.3c0.3-1.3-2.1-2.1-3.9-2.7
		c-3.8-1.3-6.6-3.8-6.9-6.6c-0.3-2.8,2.2-5.7,6.2-6.7c2.5-0.6,5.2-0.6,7.9-0.9c5.3-0.6,10.2-2.8,12.9-5.9c0.8-0.9,1.7-2,3.2-2
		c1.4,0,2.3,1,2.7,1.9c3.8,7.7-6.9,15.5-5.4,23.5c0.2,1,0.5,2.2-0.7,2.9c-1.3,0.7-3.2,0.3-4.8,0.2c-3-0.1-5.7,1.2-7.3,2.9
		c-1.6,1.7-2.3,3.6-3.1,5.5c-2.3,5.4-6,10.5-10.7,15.2"/>
	<g>
		<path d="M224.6,108.3c2.3-7.1,6.7-13,12.3-17.9c2.2-1.9,6-3.9,3.1-6.9c-1.5-1.5-4.3-1.7-6.1-2.8c-2.2-1.3-4.2-3.8-2.9-6.5
			c1.4-2.8,5.3-3.2,8-3.4c5.6-0.5,11.2-1.1,15.8-4.7c0.6-0.5,1.6-1.7,2.2-2c4.6-2,4.4,1.8,4,4.2c-0.5,2.8-2.2,5.4-3.4,7.9
			c-1.1,2.2-2.2,4.5-2.5,6.9c-0.4,3,0.9,4.5-2.8,5.1c-4.5,0.8-8,0.5-10.9,4.8c-1.8,2.6-2.7,5.8-4.2,8.6c-2.3,3.9-5.1,7.3-8.3,10.5
			c-1.4,1.4,0.8,3.5,2.1,2.1c3-3,5.7-6.1,7.9-9.7c2.4-3.7,3.6-9.9,7.5-12.2c3.2-1.9,7.2,0.4,10.2-1.6c2.1-1.4,1.4-3.3,1.3-5.4
			c-0.1-6.5,5.7-11.3,6.3-17.7c0.4-3.9-2.2-9.8-7.1-7.5c-1.3,0.6-2.1,1.9-3.1,2.8c-1.9,1.8-4.3,2.9-6.7,3.7
			c-4.1,1.3-8.4,0.6-12.5,1.8c-4.1,1.2-8.4,4.8-7,9.6c0.7,2.3,2.7,4.1,4.7,5.3c1,0.6,3.5,1,4.1,1.7c1.7,1.9-1.4,2.9-2.9,4.3
			c-5.4,5-9.6,11.1-11.8,18.1C221.1,109.3,224,110.1,224.6,108.3L224.6,108.3z"/>
	</g>
</g>
<g>
	<path class="st1" d="M156.1,16.8c-3.7,20.4,5,40.9,6.5,61.4"/>
	<g>
		<path d="M154.7,16.4c-3.4,21,4.7,41.1,6.5,61.8c0.2,1.9,3.2,1.9,3,0c-1.8-20.3-9.9-40.4-6.6-61C157.9,15.4,155,14.5,154.7,16.4
			L154.7,16.4z"/>
	</g>
</g>
<g>
	<path class="st5" d="M157.1,15.4C212.7,13,268.4,10.5,324,8.1c5.2-0.2,11.3-0.2,14.3,2.6c1.5,1.3,1.9,3,2.3,4.6
		c9.8,41.3,8.1,83.4,6.3,125.2c-29.7,0.1-59.4,0.1-89.1,0.3c-17.6,0.1-35.4,0.3-52.3,3.4"/>
	<g>
		<path d="M157.1,16.9c40.7-1.8,81.5-3.6,122.2-5.4c10.3-0.5,20.5-0.9,30.8-1.4c4.9-0.2,9.7-0.5,14.6-0.6c4.5-0.1,10.2-0.6,13.1,3.3
			c2.7,3.7,3,9.8,3.9,14.3c1.1,5.6,1.9,11.2,2.6,16.8c1.2,9.6,1.9,19.2,2.2,28.9c0.9,22.5-0.1,45.1-1.1,67.6c0.5-0.5,1-1,1.5-1.5
			c-24.4,0.1-48.9,0.1-73.3,0.2c-22.8,0.1-46-0.5-68.5,3.5c-1.9,0.3-1.1,3.2,0.8,2.9c22.9-4.1,46.5-3.3,69.7-3.4
			c23.8-0.1,47.5-0.2,71.3-0.2c0.8,0,1.5-0.7,1.5-1.5c0.9-21.2,1.8-42.5,1.2-63.7c-0.6-20.5-2.1-42-7.5-61.8
			c-1.8-6.7-7.3-8.2-13.7-8.3c-10.3-0.3-20.8,0.8-31.2,1.3c-21.9,1-43.7,1.9-65.6,2.9c-24.8,1.1-49.7,2.2-74.5,3.3
			C155.2,14,155.2,17,157.1,16.9L157.1,16.9z"/>
	</g>
</g>
<g>
	<path class="st1" d="M195.8,128.8c0.7-1.9,2.3-3.6,3.9-5.3c5.7-6,11.4-12.1,17.1-18.1c1.4-1.5,2.8-3,4.7-4.3
		c4.4-3,11.1-4.4,17.3-3.7c0.5,0.1,1,0.1,1.4,0.3c0.7,0.3,0.9,0.9,1.1,1.5c0.3,1.7-0.2,3.6-1.7,5c-1.1,1-2.6,1.8-4.1,2.6
		c-3.1,1.6-6.2,3.2-9.3,4.8c-5.4,2.8-11.2,6.1-11.4,10.6c-0.1,3.1,2.4,6.6-0.8,8.9c-0.9,0.6-2.1,1-3.3,1.4c-3.3,1-6.5,2-9.8,3.1"/>
	<g>
		<path d="M197.1,129.6c2.3-4.6,6.8-8.2,10.2-11.9c3.5-3.7,7-7.5,10.5-11.2c3.5-3.6,7-6.1,11.9-7.1c1.2-0.3,6.2-1.4,7.4-0.5
			c0.4,1.5,0.8,2.9,1.2,4.4c-0.8,0.5-1.5,1-2.3,1.6c-1.2,0.7-2.6,1.3-3.8,2c-5.8,3-14.8,6-18.1,12.1c-1.4,2.5-0.5,4.2-0.5,6.8
			c-0.1,6.3-8.4,7-13.2,8.5c-1.8,0.6-1.1,3.5,0.8,2.9c4.1-1.3,11.8-2.1,14.6-5.7c2.7-3.5-1-7.8,1.1-11.5c3.2-5.3,12.3-8.2,17.5-10.9
			c3.7-1.9,8.5-4.1,8.2-9.1c-0.6-8.4-17.3-3-21.4-0.4c-5.2,3.3-9.2,8.8-13.4,13.2c-4.5,4.7-10.4,9.4-13.3,15.3
			C193.6,129.8,196.2,131.3,197.1,129.6L197.1,129.6z"/>
	</g>
</g>
<g>
	<path class="st6" d="M233.6,96.2c0-7,0.1-14.1,0.1-21.1c0-0.9-0.1-2-1.1-2.6c-1.4-0.9-3.8-0.5-5.8-0.6c-6.5-0.1-9.9-5.2-9.9-9.5
		c0.1-9.7,12.1-19.1,26.7-19.7c1,0,1.9,0,2.8,0.2c1,0.3,1.6,0.9,2.1,1.6c1.7,2.4,1,5.1,0.8,7.7c-0.2,2.6,0.4,5.6,3.6,7.2
		c2.8,1.4,6.5,1.2,9.9,1.6c3.4,0.4,7.1,2.3,6.2,4.5c-1.1,2.9-7.5,2.3-11.5,3.5c-3.1,0.9-5.1,3.1-6,5.3c-0.9,2.2-1,4.5-1.6,6.8
		c-1.2,4.5-4.5,8.6-7.7,12.7"/>
	<g>
		<path d="M235.1,96.2c0-4.5,0-9,0.1-13.5c0-2.8,0.7-6.4-0.1-9c-1.7-5.5-8.7-2.2-12.6-4.5c-7-4-3.5-12.5,0.9-16.9
			c2.5-2.5,5.6-4.3,8.8-5.6c2.8-1.1,8.5-3.4,11.5-2.5c7.4,2,2,11.7,7.4,15.8c1.9,1.4,4.4,1.8,6.7,2.1c2,0.2,5.8-0.3,7.4,1.1
			c1.7,0.2,1.9,1.1,0.7,2.9c-0.8,0.2-1.6,0.4-2.3,0.5c-4.9,0.8-9.8,1.2-12.6,5.9c-1.5,2.5-1.5,5.5-2.3,8.2c-1.3,4.6-4.4,8.4-7.3,12
			c-1.2,1.5,0.9,3.6,2.1,2.1c4.2-5.4,7.2-10.1,8.8-16.8c1.2-5.2,4-7.5,9.3-8.3c2.1-0.3,4.5-0.4,6.5-1.3c2.9-1.4,3.6-4.3,1.2-6.6
			c-5.2-4.7-16.9,0.3-18.2-8.5c-0.7-4.2,1.7-10-4-11.9c-4.7-1.5-11.8,0.8-16,2.6c-7.8,3.3-17.7,11.6-15,21.3c1.3,4.4,5.1,7.4,9.5,8
			c2,0.3,4-0.5,5.7,0.9c1.8,1.5,1.1,4.3,1.1,6.6c0,5.1,0,10.2-0.1,15.4C232.1,98.2,235.1,98.2,235.1,96.2L235.1,96.2z"/>
	</g>
</g>
<g>
	<path class="st1" d="M177.7,88.4c2.6,0.6,5.3,0.1,8-0.1s5.9,0.1,7.2,1.7c1.1,1.3,0.3,3.1-1.3,4.2c-1.6,1.1-3.8,1.7-6,2.3
		c2.4,2.7,10.3-0.4,13.1,2.1c0.7,0.6,0.9,1.4,1,2.2c0.4,1.9,0.4,4.3-2.1,5.2c-2.5,1-6.3,0-8.2,1.4"/>
	<g>
		<path d="M177.3,89.8c3.1,0.5,5.9,0,9-0.1c2.3-0.1,3.6-0.6,3.6,2c0,2.8-2.4,2.7-4.7,3.3c-1,0.3-1.5,1.8-0.7,2.5
			c2.7,2.4,6.2,1.4,9.5,1.5c1.6,0,2.5-0.1,3.6,1.2c2.3,2.7-0.1,4.3-3,4.8c-2.2,0.3-3.9,0.1-5.9,1.1c-1.7,0.9-0.2,3.5,1.5,2.6
			c2.9-1.5,6.9,0.1,9.6-2.3c1.8-1.6,2-4.5,1.2-6.7c-2.2-6.9-10.5-1-14.4-4.4c-0.2,0.8-0.4,1.7-0.7,2.5c3.2-0.9,10.5-3,8.6-7.9
			c-2.2-5.7-12.4-2.5-16.6-3.1C176.2,86.6,175.4,89.5,177.3,89.8L177.3,89.8z"/>
	</g>
</g>
<g>
	<path class="st1" d="M199,32.9c-4-1.5-9.2-1.6-13.3-0.1c-4.1,1.5-6.8,4.4-7.1,7.4c-0.1,0.8,0.1,1.7,0.9,2.3
		c0.8,0.7,2.1,0.9,3.3,1.1c5.4,0.9,10.9,1.4,16.4,1.5c1.9,0,4.1-0.1,5.3-1c0.8-0.7,1-1.6,1.1-2.4c0.2-1.7,0.5-3.5-0.4-5.1
		c-0.8-1.6-3-3.1-5.6-3"/>
	<g>
		<path d="M199.4,31.5c-6.5-2.1-15.4-1.7-20.1,3.9c-1.4,1.7-2.7,4.2-2,6.5c0.9,2.9,4.4,3.2,6.9,3.5c4.7,0.7,9.4,1.1,14.1,1.2
			c2.5,0.1,5.6,0.2,7.5-1.7c1.9-2.1,2-6.6,0.7-9c-1.4-2.6-4.1-3.5-6.9-3.8c-1.9-0.2-1.9,2.8,0,3c5.3,2.3,6.2,4.5,2.9,6.7
			c-0.7,1.6-1.8,2.2-3.2,1.8c-1.6,0.3-3.9-0.1-5.5-0.2c-3.3-0.2-8.2,0-11.1-1.3c-6-2.7,1.8-7.4,4.9-8.3c3.6-1,7.5-0.6,11.1,0.5
			C200.5,35,201.3,32.1,199.4,31.5L199.4,31.5z"/>
	</g>
</g>
<g>
	<path class="st1" d="M209.4,34.2c6.7-1.2,13.5-2.4,20.2-3.6c1.2-0.2,2.6-0.4,3.6,0.1c1,0.5,1.1,1.4,1.1,2.3c0,2.1,0.1,4.2,0.1,6.4"
		/>
	<g>
		<path d="M209.8,35.6c4.9-0.9,9.8-1.8,14.7-2.6c1.9-0.3,6.7-2.1,8.3-0.1c0.7,0.9,0.1,5.2,0.1,6.4c0,1.9,3,1.9,3,0
			c-0.1-3.7,1.3-9.8-3.8-10.4c-3.3-0.4-7.1,1-10.2,1.6c-4.3,0.8-8.6,1.5-12.9,2.3C207.1,33.1,207.9,36,209.8,35.6L209.8,35.6z"/>
	</g>
</g>
<g>
	<path class="st1" d="M207.8,43.6c4.6,0.7,9.3,1.1,14,1"/>
	<g>
		<path d="M207.5,45c4.8,0.7,9.6,1.1,14.4,1.1c1.9,0,1.9-3,0-3c-4.6,0-9.1-0.3-13.6-1C206.4,41.9,205.5,44.7,207.5,45L207.5,45z"/>
	</g>
</g>
<g>
	<path class="st1" d="M210.9,37.8c-0.4,0.8-0.1,1.7,0.6,2.4c0.9-0.8,1.9-1.6,2.8-2.4c-0.6-0.8-1.7-1.4-2.9-1.8
		c-0.9,1.5-0.3,3.3,1.4,4.5c1-0.8,1.4-2,1.1-3c-0.3,1-1.5,1.8-2.9,1.9"/>
	<g>
		<path d="M209.4,37.4c-0.6,1.4,0,2.9,1,3.8c0.6,0.6,1.5,0.5,2.1,0c0.9-0.8,1.9-1.6,2.8-2.4c0.7-0.6,0.5-1.5,0-2.1
			c-0.9-1.1-2.2-1.8-3.6-2.2c-0.6-0.2-1.4,0.1-1.7,0.7c-1.3,2.5-0.3,5,1.9,6.5c0.5,0.4,1.4,0.2,1.8-0.2c1.3-1.2,1.8-2.8,1.5-4.5
			c-0.3-1.5-2.4-1.3-2.9,0c-0.2,0.6-1.3,0.8-1.9,0.9c-0.8,0.1-1.2,1.1-1,1.8c0.2,0.9,1,1.2,1.8,1c1.7-0.3,3.4-1.3,4-3
			c-1,0-1.9,0-2.9,0c0.1,0.6-0.2,1.1-0.7,1.5c0.6-0.1,1.2-0.2,1.8-0.2c-0.8-0.6-1.3-1.5-0.8-2.4c-0.6,0.2-1.1,0.5-1.7,0.7
			c0.9,0.3,1.7,0.7,2.3,1.4c0-0.7,0-1.4,0-2.1c-0.9,0.8-1.9,1.6-2.8,2.4c0.7,0,1.4,0,2.1,0c-0.4-0.3-0.4-0.5-0.2-0.9
			c0.3-0.8-0.3-1.6-1-1.8C210.4,36.1,209.7,36.6,209.4,37.4L209.4,37.4z"/>
	</g>
</g>
<g>
	<path class="st1" d="M187.2,36.8c2.2,1,3.5,2.8,3.5,4.5c-3.1-1.3-4.5-4.1-3.1-6.3c0.7,2.5,0.6,5.1-0.3,7.5c0-0.8-0.1-1.6-0.1-2.3"
		/>
	<g>
		<path d="M186.5,38.1c1.3,0.7,2.7,1.7,2.7,3.2c0.8-0.4,1.5-0.9,2.3-1.3c-1.6-0.7-3.7-2.3-2.6-4.3c-0.9-0.1-1.8-0.2-2.7-0.4
			c0.6,2.3,0.5,4.5-0.3,6.7c1,0.1,2,0.3,2.9,0.4c0-0.8-0.1-1.6-0.1-2.3c-0.1-1.9-3.1-1.9-3,0c0,0.8,0.1,1.6,0.1,2.3
			c0.1,1.7,2.4,2,2.9,0.4c1-2.7,1.1-5.5,0.3-8.3c-0.3-1.2-2.1-1.5-2.7-0.4c-1.9,3.4,0.4,6.9,3.6,8.4c1,0.4,2.3,0,2.3-1.3
			c-0.1-2.7-1.9-4.6-4.2-5.8C186.3,34.6,184.7,37.2,186.5,38.1L186.5,38.1z"/>
	</g>
</g>
<g>
	<path class="st7" d="M175.5,26.5c-1.8,7.1-2.4,14.4-1.9,21.6c0.3,3.9,1.2,8.2,5.6,10.8c5.5,3.2,14.9,2.8,18.8,6.9
		c3.6,3.8,0.1,9.2,3.9,12.9c1.1,1,2.6,1.8,3.8,2.8c2.7,2.1,3.5,5,5.4,7.5c1.8,2.5,5.6,4.8,9.7,4.3"/>
	<g>
		<path d="M174.1,26.1c-1.9,8.3-3.8,18.8-1.1,27.1c2.4,7.2,9.3,8.6,15.9,10.2c1.9,0.5,4,0.8,5.7,1.8c3.3,1.7,3.7,4.4,3.9,7.8
			c0.2,3.5,1.1,5.6,3.8,7.9c2.5,2.1,4.3,3.5,6,6.3c1,1.5,1.8,3,3.1,4.2c2.6,2.5,5.9,3.5,9.5,3.3c1.9-0.1,1.9-3.1,0-3
			c-6.1,0.3-8.2-3.6-11.2-8c-2.5-3.8-7.5-5.2-8.2-10c-0.8-5.4-0.8-9.1-6.5-11.5c-5.8-2.4-14.7-1.7-18.3-7.8
			c-4.2-7.2-1.5-20,0.2-27.4C177.4,25,174.5,24.2,174.1,26.1L174.1,26.1z"/>
	</g>
</g>
<g>
	<path class="st8" d="M255,98.6c13.8,0.6,27.7,0,41.3-1.8c7.1-0.9,14.3-2.2,21.5-1.9c7.2,0.2,14.8,2.3,18.4,6.5
		c1.4-5.2,1.9-10.5,1.3-15.7c-0.1-1.4-0.4-2.9-1.9-3.9c-1.4-1-3.5-1.3-5.5-1.5c-15-1.3-29.9,2.7-44.9,3.8c-2.1,0.2-4.5,0.2-5.9-0.9
		c-1.4-1-1.1-2.7-2.4-3.8c-2.8-2.6-9.6-0.1-13.8-1.8"/>
	<g>
		<path d="M255,100.1c14.1,0.6,28.2,0,42.2-1.9c11.5-1.5,28.8-5.4,38,4.2c0.8,0.8,2.2,0.4,2.5-0.7c1.4-5.4,4-16.2-0.5-20.6
			c-2-2-5.3-2.2-8-2.4c-5.3-0.4-10.6-0.1-15.9,0.4c-4.5,0.4-9,1.1-13.5,1.7c-3,0.4-6,0.8-9,1.2c-2.1,0.2-5.2,1.1-7.2,0.6
			c-3.9-0.9-5-4.9-8.7-5.8c-3.7-0.8-7.6,0.5-11.3-0.7c-1.8-0.6-2.6,2.3-0.8,2.9c2.8,0.9,5.6,0.6,8.5,0.6c4.7,0,4.3,2.3,7,4.6
			c4.2,3.5,13.8,0.6,18.4,0c8.6-1.2,17.3-2.6,26-2.8c5-0.1,13.1-0.9,13.5,5.8c0.3,4.6-0.3,9.1-1.4,13.6c0.8-0.2,1.7-0.4,2.5-0.7
			c-8.4-8.8-23.2-7.3-34-5.9c-16.1,2.1-32,3.4-48.2,2.7C253,97,253,100,255,100.1L255,100.1z"/>
	</g>
</g>
<g>
	<path class="st9" d="M250.4,37.2c-2.7-5.5-3.8-11.2-3.5-17c0.1-1,0.1-2-0.9-2.7c-1.2-0.8-3.1-0.7-4.8-0.6
		c-22.2,2.1-44.5,4.3-66.7,6.4c-0.3,0-0.6,0.1-0.8,0.2c-0.5,0.3-0.3,0.8,0,1.1c0.6,1,1.2,1.9,1.8,2.9"/>
	<g>
		<path d="M251.7,36.4c-2.5-5.6-2.8-10.7-3.3-16.7c-0.2-2.1-0.9-3.4-3-4.2c-3.8-1.3-9.3,0.3-13.1,0.7c-5.6,0.5-11.1,1.1-16.7,1.6
			c-10.8,1-21.6,2.1-32.4,3.1c-2.5,0.2-8.7-0.5-10.7,1.5c-1.8,1.8,0.7,4.4,1.6,5.9c1,1.6,3.6,0.1,2.6-1.5c-1.6-2.5-0.3-1.9,1.6-2.4
			c1.8-0.5,4-0.4,5.9-0.6c3.9-0.4,7.9-0.8,11.8-1.1c8.2-0.8,16.4-1.6,24.5-2.4c3.9-0.4,7.9-0.8,11.8-1.1c3.2-0.3,8.9-2,11.6,0
			c2.1,1.5,1.3,2.8,1.5,5.3c0.1,1.3,0.3,2.6,0.5,3.8c0.6,3.4,1.8,6.5,3.2,9.6C249.9,39.7,252.5,38.2,251.7,36.4L251.7,36.4z"/>
	</g>
</g>
</svg>
